<?xml version="1.0" standalone="no"?>
<!DOCTYPE svg PUBLIC "-//W3C//DTD SVG 20010904//EN"
 "http://www.w3.org/TR/2001/REC-SVG-20010904/DTD/svg10.dtd">
<svg version="1.0" xmlns="http://www.w3.org/2000/svg"
 width="129.000000pt" height="129.000000pt" viewBox="0 0 129.000000 129.000000"
 preserveAspectRatio="xMidYMid meet">
<metadata>
Created by potrace 1.14, written by Peter Selinger 2001-2017
</metadata>
<g transform="translate(0.000000,129.000000) scale(0.100000,-0.100000)"
fill="#000000" stroke="none">
<path d="M123 1223 l67 -68 67 68 68 67 -135 0 -135 0 68 -67z"/>
<path d="M340 1199 c-47 -49 -86 -93 -88 -97 -1 -4 18 -28 43 -52 l45 -45 143
143 142 142 -100 -1 -100 -1 -85 -89z"/>
<path d="M709 1270 c-16 -17 -14 -21 32 -66 l49 -49 68 68 67 67 -100 -1 c-83
-1 -103 -4 -116 -19z"/>
<path d="M995 1255 c-16 -18 -57 -60 -90 -94 l-59 -61 44 -45 c24 -25 48 -44
52 -43 8 3 245 236 268 263 11 13 0 15 -86 14 -98 -2 -99 -2 -129 -34z"/>
<path d="M0 1138 l0 -97 93 -90 c50 -50 94 -91 97 -91 3 0 26 20 50 45 l45 45
-143 143 -142 142 0 -97z"/>
<path d="M1210 1165 l-64 -65 64 -65 c35 -35 66 -63 68 -61 5 5 4 247 -1 252
-1 2 -32 -26 -67 -61z"/>
<path d="M595 1153 c-22 -24 -41 -48 -43 -52 -1 -3 52 -60 117 -125 l120 -120
45 40 c24 21 45 44 45 50 1 9 -235 256 -242 253 -1 0 -20 -21 -42 -46z"/>
<path d="M440 995 l-45 -45 123 -123 122 -122 47 48 48 47 -120 120 c-66 66
-122 120 -125 120 -3 0 -26 -20 -50 -45z"/>
<path d="M1040 995 l-44 -45 139 -140 140 -140 5 52 c11 115 3 134 -94 231
-49 48 -91 87 -95 87 -4 0 -27 -20 -51 -45z"/>
<path d="M0 839 c0 -79 3 -100 18 -117 l19 -21 49 50 49 49 -68 68 -67 67 0
-96z"/>
<path d="M215 770 l-120 -120 48 -47 47 -48 122 122 123 123 -45 45 c-24 25
-47 45 -50 45 -3 0 -59 -54 -125 -120z"/>
<path d="M815 770 l-119 -120 44 -45 c24 -25 47 -45 51 -45 3 0 60 54 127 120
l120 120 -45 43 c-24 23 -48 43 -51 45 -4 1 -61 -52 -127 -118z"/>
<path d="M365 620 l-120 -120 48 -47 47 -48 122 122 123 123 -45 45 c-24 25
-47 45 -50 45 -3 0 -59 -54 -125 -120z"/>
<path d="M965 620 l-119 -120 44 -45 c24 -25 47 -45 51 -45 8 0 233 226 237
239 3 8 -77 91 -88 91 -3 0 -59 -54 -125 -120z"/>
<path d="M0 538 l0 -96 92 -91 c50 -50 94 -91 98 -91 3 0 26 20 50 45 l45 45
-143 143 -142 142 0 -97z"/>
<path d="M590 545 l-45 -45 123 -122 122 -123 45 45 c25 24 45 47 45 50 0 8
-227 234 -238 238 -4 1 -28 -18 -52 -43z"/>
<path d="M1190 545 l-44 -45 67 -68 67 -67 1 33 c2 123 0 151 -12 170 -19 31
-29 28 -79 -23z"/>
<path d="M440 395 c-24 -24 -42 -47 -39 -49 2 -3 57 -59 122 -125 l118 -120
44 47 c25 26 45 50 45 53 0 8 -227 233 -238 237 -4 1 -27 -18 -52 -43z"/>
<path d="M1040 395 l-44 -45 139 -140 c76 -77 141 -138 142 -136 2 2 4 45 4
95 l0 91 -93 90 c-51 49 -95 90 -98 90 -3 0 -26 -20 -50 -45z"/>
<path d="M0 200 l0 -135 67 68 68 67 -68 67 -67 68 0 -135z"/>
<path d="M195 150 l-140 -140 97 0 97 0 90 91 c50 50 91 94 91 97 0 8 -82 92
-90 92 -3 0 -68 -63 -145 -140z"/>
<path d="M795 150 l-140 -140 97 0 97 0 94 95 95 94 -46 46 c-26 25 -49 45
-52 45 -3 0 -68 -63 -145 -140z"/>
<path d="M420 75 l-64 -65 94 0 c90 1 130 11 130 36 0 9 -81 94 -90 94 -3 0
-35 -29 -70 -65z"/>
<path d="M1020 75 l-64 -65 133 0 134 0 -19 21 c-40 46 -106 109 -113 109 -3
0 -36 -29 -71 -65z"/>
</g>
</svg>
